<svg width="163" height="32" viewBox="0 0 163 32" fill="none" xmlns="http://www.w3.org/2000/svg">
<g clip-path="url(#clip0_3113_47540)">
<path d="M20.221 7.27974V3.01742L16.1719 0L0 5.4488V29.6149L4.04932 32.0039L24.2701 25.0349V10.2972L20.221 7.27974Z" fill="#00A956"/>
<path d="M14.7465 0.482811C17.5469 1.90528 18.3388 5.42895 17.0321 7.3418C15.1076 10.1596 12.7256 8.95179 11.852 7.37482C10.9787 5.79764 12.7705 4.70724 12.7705 4.70724C12.7705 4.70724 10.3062 1.84538 7.87639 4.45052C5.44679 7.05587 6.11378 10.145 8.14119 12.1464C10.1686 14.1477 12.5432 14.2046 12.5432 14.2046C12.5432 14.2046 8.03303 17.7581 3.688 13.3256C3.688 13.3256 1.90909 16.4303 6.8957 19.9235C6.8957 19.9235 3.20242 21.0575 3.7498 25.4984L3.76716 25.7706L4.03937 25.7843C8.4877 26.2754 9.57465 22.5684 9.57465 22.5684C13.1316 27.5095 16.2138 25.6912 16.2138 25.6912C11.7257 21.4035 15.2221 16.8491 15.2221 16.8491C15.2221 16.8491 15.3093 19.2225 17.3363 21.224C19.1662 23.0302 21.868 23.7174 24.2699 22.024V17.0523C23.8137 17.4995 23.0352 17.9763 22.0609 17.4531C20.4727 16.6 19.2346 14.2338 22.0281 12.2738C22.6447 11.8412 23.4344 11.628 24.2699 11.6333V10.3L21.3113 8.09505L21.2102 8.10648L21.2182 8.02563L20.2208 7.28233V3.02001L16.1719 0.00258827L14.7465 0.482811ZM0.121713 5.41033C0.0808596 5.4806 0.0400064 5.55129 0 5.62155V29.6174L3.62767 31.7578C4.18204 31.6209 4.76901 31.558 5.39366 31.543L12.3112 29.1588C11.9712 29.1311 11.6474 29.0885 11.3425 29.0314C6.1559 28.0572 0.202148 29.3806 0.202148 29.3806C0.202148 29.3806 1.44975 23.4112 0.409589 18.2383C-0.323227 14.5942 1.03339 8.18732 4.30926 3.9995L0.121713 5.41033Z" fill="url(#paint0_linear_3113_47540)"/>
<path d="M15.8692 19.3271L3.86839 23.3687V8.58678L5.8886 7.89999L12.4118 5.67899V9.91104L7.32608 11.6239V17.9817L12.4118 16.2691V13.2023L15.8675 12.0368V12.985L15.8692 15.1054V19.3271ZM15.8692 8.74573V1.30196L15.426 1.45202L0.896484 6.34631V28.3477L19.325 21.9704V7.5821L15.8692 8.74573Z" fill="white"/>
<path d="M43.8209 22.2754C44.479 22.2754 45.0128 22.08 45.4222 21.6884C45.8309 21.2972 46.0358 20.7904 46.0358 20.1673C46.0358 19.5628 45.8309 19.0648 45.4222 18.6732C45.0128 18.282 44.479 18.0862 43.8209 18.0862H40.2454V22.2754H43.8209ZM45.6891 12.7497C45.6891 12.4471 45.6395 12.1755 45.5422 11.9356C45.4441 11.6953 45.3063 11.4864 45.1284 11.3085C44.9504 11.1309 44.7324 10.9927 44.4747 10.895C44.2165 10.7973 43.9274 10.7481 43.6077 10.7481H40.2454V14.724H43.6077C44.2479 14.724 44.755 14.5417 45.1284 14.1771C45.5021 13.8125 45.6891 13.3363 45.6891 12.7497ZM47.5033 16.1382C48.3211 16.5652 48.9577 17.1656 49.4112 17.9393C49.8651 18.7133 50.0919 19.5986 50.0919 20.5943C50.0919 22.0887 49.5181 23.3608 48.3707 24.4101C47.2233 25.4597 45.8401 25.9844 44.2213 25.9844H36.2695V7.30564H44.008C45.6089 7.30564 46.9429 7.76393 48.0105 8.68014C49.078 9.59636 49.6114 10.739 49.6114 12.1091C49.6114 12.9094 49.4247 13.6659 49.051 14.3769C48.6773 15.0886 48.1614 15.6756 47.5033 16.1382Z" fill="black"/>
<path d="M51.6387 11.5754H55.5343V25.9844H51.6387V11.5754ZM51.6387 6.02519H55.5343V9.65433H51.6387V6.02519Z" fill="black"/>
<path d="M57.8027 6.37192H61.6984V25.9844H57.8027V6.37192Z" fill="black"/>
<path d="M63.9668 11.5754H67.8625V25.9844H63.9668V11.5754ZM63.9668 6.02519H67.8625V9.65433H63.9668V6.02519Z" fill="black"/>
<path d="M86.5149 11.2283C88.0093 11.2283 89.2322 11.762 90.1837 12.8292C91.1353 13.8967 91.6115 15.2668 91.6115 16.9389V25.9844H87.7158V17.5791C87.7158 15.6223 86.9859 14.6438 85.5276 14.6438C84.9577 14.6438 84.464 14.7819 84.0462 15.0576C83.6284 15.3336 83.3127 15.7379 83.099 16.2717C82.8857 16.8054 82.7789 17.4456 82.7789 18.1931V25.9844H78.9634V17.5791C78.9634 15.6223 78.2605 14.6438 76.8554 14.6438C75.9654 14.6438 75.2716 14.9555 74.7739 15.5778C74.2755 16.2006 74.0265 17.0719 74.0265 18.1931V25.9844H70.1309V11.5754H72.8529L73.5733 13.363C74.1067 12.7049 74.7513 12.185 75.5079 11.8021C76.2636 11.4197 77.0596 11.2283 77.8959 11.2283C78.803 11.2283 79.6212 11.4332 80.3507 11.8422C81.0799 12.2517 81.649 12.8204 82.0585 13.5496C82.236 13.301 82.4231 13.0738 82.6188 12.8693C82.8143 12.6651 83.0283 12.4785 83.2594 12.3089C83.4902 12.1401 83.7305 11.9888 83.9799 11.8554C84.2285 11.7219 84.491 11.6107 84.767 11.5218C85.0426 11.4332 85.3274 11.3617 85.6209 11.3085C85.9144 11.2553 86.2123 11.2283 86.5149 11.2283Z" fill="black"/>
<path d="M156.289 26.0078C155.097 26.0078 154.043 25.7945 153.127 25.3676C152.211 24.9403 151.499 24.3358 150.993 23.5527C150.485 22.7702 150.232 21.8715 150.232 20.858H154.021C154.039 21.2845 154.15 21.6447 154.355 21.9382C154.559 22.2321 154.839 22.4454 155.195 22.5788C155.551 22.7123 155.96 22.779 156.423 22.779C156.797 22.779 157.134 22.7258 157.436 22.6193C157.739 22.5121 157.988 22.348 158.184 22.1253C158.379 21.9029 158.478 21.6407 158.478 21.3378C158.478 20.8937 158.246 20.5641 157.783 20.3508C157.321 20.1372 156.627 19.9505 155.702 19.7904C155.115 19.7015 154.63 19.6129 154.248 19.5236C153.866 19.435 153.411 19.2789 152.887 19.0565C152.362 18.8345 151.944 18.5807 151.633 18.296C151.321 18.0116 151.05 17.6204 150.819 17.122C150.588 16.6243 150.472 16.0461 150.472 15.3876C150.472 14.0361 151.006 12.9325 152.073 12.0786C153.14 11.2251 154.542 10.7978 156.276 10.7978C158.011 10.7978 159.407 11.2382 160.465 12.1191C161.523 12.9992 162.053 14.1601 162.053 15.6009H158.344C158.344 14.463 157.623 13.8932 156.183 13.8932C155.578 13.8932 155.106 14.0179 154.768 14.2669C154.43 14.5163 154.262 14.8539 154.262 15.2812C154.262 15.4587 154.31 15.6235 154.408 15.7745C154.506 15.9258 154.621 16.0461 154.755 16.1347C154.889 16.224 155.097 16.3082 155.382 16.3881C155.666 16.4683 155.907 16.5263 156.102 16.5616C156.298 16.5973 156.592 16.6506 156.983 16.7217C157.321 16.7931 157.561 16.842 157.704 16.8686C157.846 16.8952 158.086 16.9444 158.424 17.0152C158.762 17.0866 159.015 17.1533 159.185 17.2153C159.353 17.278 159.585 17.3623 159.878 17.4691C160.172 17.5755 160.394 17.6867 160.546 17.8027C160.696 17.9186 160.883 18.0557 161.106 18.2161C161.328 18.3762 161.501 18.5545 161.626 18.7499C161.751 18.9457 161.875 19.159 162 19.3901C162.124 19.6216 162.209 19.8881 162.253 20.1908C162.297 20.4934 162.32 20.8135 162.32 21.1515C162.32 22.6281 161.768 23.8064 160.666 24.6865C159.562 25.5674 158.104 26.0078 156.289 26.0078Z" fill="#00A956"/>
<path d="M143.749 26.0117C142.557 26.0117 141.503 25.7984 140.587 25.3715C139.67 24.9442 138.959 24.3397 138.452 23.5566C137.945 22.7741 137.691 21.8754 137.691 20.8619H141.481C141.498 21.2884 141.609 21.6487 141.814 21.9422C142.018 22.236 142.299 22.4493 142.655 22.5827C143.01 22.7162 143.419 22.7829 143.883 22.7829C144.256 22.7829 144.593 22.7297 144.896 22.6232C145.198 22.516 145.447 22.352 145.643 22.1292C145.839 21.9068 145.937 21.6446 145.937 21.3417C145.937 20.8976 145.705 20.568 145.243 20.3547C144.78 20.1411 144.086 19.9544 143.162 19.7943C142.575 19.7054 142.09 19.6168 141.707 19.5275C141.325 19.4389 140.871 19.2828 140.347 19.0604C139.822 18.8384 139.404 18.5846 139.092 18.2999C138.781 18.0155 138.51 17.6243 138.279 17.1259C138.047 16.6282 137.932 16.05 137.932 15.3915C137.932 14.04 138.465 12.9364 139.533 12.0825C140.6 11.229 142.001 10.8017 143.735 10.8017C145.47 10.8017 146.866 11.2421 147.925 12.123C148.983 13.0031 149.513 14.164 149.513 15.6048H145.804C145.804 14.4669 145.083 13.8971 143.642 13.8971C143.037 13.8971 142.566 14.0218 142.228 14.2708C141.89 14.5202 141.721 14.8578 141.721 15.2851C141.721 15.4626 141.77 15.6274 141.867 15.7784C141.965 15.9297 142.081 16.05 142.215 16.1386C142.348 16.2279 142.557 16.3121 142.841 16.392C143.126 16.4722 143.366 16.5302 143.562 16.5655C143.757 16.6013 144.051 16.6545 144.443 16.7256C144.78 16.797 145.02 16.8459 145.163 16.8725C145.305 16.8991 145.545 16.9483 145.883 17.0191C146.221 17.0905 146.475 17.1573 146.644 17.2192C146.813 17.2819 147.044 17.3662 147.338 17.473C147.631 17.5795 147.854 17.6907 148.005 17.8066C148.156 17.9225 148.343 18.0596 148.565 18.22C148.787 18.3801 148.961 18.5584 149.086 18.7538C149.21 18.9496 149.335 19.1629 149.459 19.394C149.583 19.6255 149.668 19.8921 149.712 20.1947C149.757 20.4973 149.779 20.8174 149.779 21.1554C149.779 22.632 149.228 23.8103 148.125 24.6904C147.022 25.5713 145.564 26.0117 143.749 26.0117Z" fill="#00A956"/>
<path d="M125.805 21.2047C126.542 21.9517 127.477 22.3254 128.607 22.3254C129.736 22.3254 130.674 21.9517 131.422 21.2047C132.169 20.4576 132.543 19.5148 132.543 18.3762C132.543 17.2379 132.169 16.2947 131.422 15.5473C130.674 14.8006 129.741 14.4269 128.62 14.4269C127.873 14.4269 127.201 14.6001 126.605 14.9472C126.009 15.2943 125.542 15.7657 125.204 16.3615C124.866 16.9579 124.697 17.6288 124.697 18.3762C124.697 19.5148 125.067 20.4576 125.805 21.2047ZM133.45 11.1715H136.358V25.5805H133.29L132.97 24.3001C131.653 25.4383 130.096 26.0078 128.3 26.0078C126.129 26.0078 124.328 25.283 122.896 23.833C121.464 22.383 120.748 20.5641 120.748 18.3762C120.748 16.2061 121.464 14.4003 122.896 12.9595C124.328 11.5186 126.129 10.7978 128.3 10.7978C130.132 10.7978 131.706 11.3848 133.023 12.5591L133.45 11.1715Z" fill="#00A956"/>
<path d="M115.518 5.99656H119.414V25.6094H115.518V5.99656Z" fill="#00A956"/>
<path d="M105.244 26.0117C103.447 26.0117 101.811 25.5895 100.334 24.744C98.8576 23.8996 97.7015 22.734 96.8655 21.2487C96.0291 19.7634 95.6113 18.1132 95.6113 16.2986C95.6113 13.5237 96.5319 11.202 98.3731 9.33422C100.214 7.46642 102.504 6.53234 105.244 6.53234C107.521 6.53234 109.487 7.2174 111.141 8.58717C112.796 9.95694 113.845 11.754 114.29 13.9773H110.234C109.985 13.2481 109.62 12.6123 109.14 12.0694C108.66 11.5269 108.086 11.1091 107.419 10.8152C106.752 10.5217 106.027 10.3748 105.244 10.3748C103.661 10.3748 102.34 10.9399 101.281 12.0694C100.223 13.1993 99.694 14.604 99.694 16.2855C99.694 17.9666 100.223 19.3674 101.281 20.4882C102.34 21.6089 103.661 22.1689 105.244 22.1689C106.472 22.1689 107.53 21.8222 108.42 21.1287C109.309 20.4349 109.923 19.4921 110.261 18.2999H114.344C113.917 20.6125 112.871 22.4759 111.208 23.8905C109.545 25.3044 107.557 26.0117 105.244 26.0117Z" fill="#00A956"/>
</g>
<defs>
<linearGradient id="paint0_linear_3113_47540" x1="-17.0672" y1="21.8265" x2="32.3946" y2="21.8265" gradientUnits="userSpaceOnUse">
<stop stop-color="#05D332"/>
<stop offset="0.245481" stop-color="#00DC3A"/>
<stop offset="1" stop-color="#06E545"/>
</linearGradient>
<clipPath id="clip0_3113_47540">
<rect width="162.32" height="32.0039" fill="white"/>
</clipPath>
</defs>
</svg>
